#!OML:ASF E:\emotionWalksFemale\Project 1\Capture day 1\Session 1\Female1.ASF
:FULLY-SPECIFIED
:DEGREES
329
root 8.14226 18.2614 20.5261 348.074 51.2575 -367.703
lowerback 4.26445 1.47935 -0.794276
upperback -4.35371 1.8471 -1.65654
thorax -6.90309 0.914799 -1.47473
lowerneck -8.31676 11.199 7.3596
upperneck 17.6335 14.2304 1.44846
head 7.20539 7.50715 0.585566
rclavicle -1.47101e-014 1.74931e-014
rhumerus -60.0209 9.2646 -93.501
rradius 65.565
rwrist -8.99136
rhand 6.85409 -52.534
rfingers 7.12502
rthumb 32.1368 -79.7124
lclavicle -1.47101e-014 1.74931e-014
lhumerus -20.7111 -38.6184 85.7444
lradius 34.6265
lwrist -27.1192
lhand 8.26362 -46.3808
lfingers 7.12502
lthumb 33.4776 -19.4826
rfemur 0.460703 9.34953 28.3279
rtibia 12.7779
rfoot 25.9034 -8.41598
rtoes -24.3846
lfemur -9.91038 -11.1044 -20.8968
ltibia 35.8303
lfoot 22.1039 20.2482
ltoes 9.41397
330
root 8.10284 18.0809 20.5445 346.309 55.0828 -369.529
lowerback 4.55981 1.42004 -1.05247
upperback -4.26483 1.74422 -1.65419
thorax -6.9895 0.87672 -1.3246
lowerneck -8.72331 10.1555 6.06758
upperneck 17.5571 12.7096 2.82657
head 7.02185 6.8186 1.06189
rclavicle -6.04305e-014 -3.02153e-014
rhumerus -60.2186 9.55579 -92.9757
rradius 65.776
rwrist -9.63852
rhand 6.45706 -52.5792
rfingers 7.12502
rthumb 31.7587 -79.8332
lclavicle -6.04305e-014 -3.02153e-014
lhumerus -19.1574 -37.8665 84.397
lradius 35.3643
lwrist -25.6424
lhand 9.51277 -46.2654
lfingers 7.12502
lthumb 34.6641 -19.6316
rfemur 0.153145 8.00701 28.7229
rtibia 13.5068
rfoot 25.8993 -9.04492
rtoes -22.1503
lfemur -9.96911 -11.7527 -20.432
ltibia 36.7474
lfoot 22.2824 19.6059
ltoes 7.29106
331
root 8.06442 17.8898 20.5598 344.129 58.803 -371.767
lowerback 4.9932 1.34622 -1.19028
upperback -4.19994 1.62475 -1.67776
thorax -7.17665 0.823409 -1.27124
lowerneck -9.09401 9.11087 4.95163
upperneck 17.4296 11.2082 4.04786
head 6.87825 6.13545 1.47847
rclavicle 2.3059e-014 2.38542e-014
rhumerus -60.3502 9.78814 -92.3059
rradius 66.0982
rwrist -10.4318
rhand 6.53464 -52.818
rfingers 7.12502
rthumb 31.8326 -80.0574
lclavicle 2.3059e-014 2.38542e-014
lhumerus -17.7504 -37.1099 82.9924
lradius 35.9127
lwrist -25.3453
lhand 8.38245 -46.6467
lfingers 7.12502
lthumb 33.5906 -19.773
rfemur -0.301384 6.46832 29.1166
rtibia 14.5084
rfoot 26.0211 -8.14518
rtoes -21.7087
lfemur -10.1143 -12.6444 -19.9612
ltibia 37.6435
lfoot 23.0086 18.8248
ltoes 6.84582
332
root 8.02629 17.6907 20.5812 341.432 62.4103 -374.325
lowerback 5.58281 1.32855 -1.48815
upperback -4.098 1.56082 -1.70135
thorax -7.41898 0.80523 -1.13721
lowerneck -9.13866 7.9952 3.7767
upperneck 17.0273 9.66064 5.2573
head 6.62351 5.41913 1.88271
rclavicle -4.85035e-014 1.90833e-014
rhumerus -60.3572 9.75496 -91.3026
rradius 66.212
rwrist -10.4572
rhand 6.38175 -52.9446
rfingers 7.12502
rthumb 31.687 -80.2128
lclavicle -4.85035e-014 1.90833e-014
lhumerus -16.3191 -36.4104 81.7037
lradius 36.515
lwrist -24.5602
lhand 8.27076 -46.4034
lfingers 7.12502
lthumb 33.4844 -19.5066
rfemur -0.666721 5.01916 29.4268
rtibia 15.6664
rfoot 25.7687 -7.98261
rtoes -19.7995
lfemur -10.1607 -13.7229 -19.5187
ltibia 38.5681
lfoot 22.6077 18.9668
ltoes 14.777
333
root 7.99087 17.4664 20.6112 337.8 65.7776 -377.776
lowerback 6.05125 1.44008 -1.81025
upperback -3.93697 1.67194 -1.65946
thorax -7.52965 0.875903 -0.936787
lowerneck -8.86625 6.745 2.57452
upperneck 16.3466 7.96874 6.48777
head 6.26521 4.62086 2.27902
rclavicle 2.5842e-014 4.13472e-014
rhumerus -60.3014 9.38861 -90
rradius 66.2213
rwrist -9.95941
rhand 5.56356 -53.4095
rfingers 7.12502
rthumb 30.9074 -80.8286
lclavicle 2.5842e-014 4.13472e-014
lhumerus -14.8218 -35.964 80.4961
lradius 37.046
lwrist -23.6699
lhand 12.294 -45.3932
lfingers 7.12502
lthumb 37.2988 -19.4066
rfemur -1.04824 3.72289 29.8696
rtibia 17.0242
rfoot 25.3245 -8.19008
rtoes -17.8679
lfemur -10.2384 -14.2039 -19.0356
ltibia 39.486
lfoot 23.4017 15.581
ltoes 2.19639
334
root 7.95708 17.2292 20.6373 333.037 68.9415 -382.545
lowerback 6.36258 1.60049 -1.96476
upperback -3.76561 1.86771 -1.60824
thorax -7.53418 0.979475 -0.826975
lowerneck -8.59078 5.40086 1.50307
upperneck 15.5186 6.16643 7.58263
head 5.91832 3.75314 2.62011
rclavicle -7.67309e-014 -2.70347e-014
rhumerus -60.1756 9.02973 -88.6678
rradius 66.2941
rwrist -9.77146
rhand 6.49193 -53.5151
rfingers 7.12502
rthumb 31.7919 -80.7625
lclavicle -7.67309e-014 -2.70347e-014
lhumerus -12.6794 -33.3921 79.4515
lradius 36.6275
lwrist -25.0629
lhand 12.8895 -46.1901
lfingers 7.12502
lthumb 37.8615 -20.3533
rfemur -1.77974 2.20968 30.3788
rtibia 18.6761
rfoot 24.4639 -8.28747
rtoes -17.1854
lfemur -10.5466 -14.8249 -18.3779
ltibia 40.4662
lfoot 23.5323 14.2602
ltoes 6.81748
335
root 7.9239 16.9875 20.6558 327.297 72.0107 -388.377
lowerback 6.7182 1.56853 -2.26145
upperback -3.54119 1.8 -1.39299
thorax -7.5172 0.964336 -0.431755
lowerneck -8.58143 4.21721 -0.0520572
upperneck 14.6924 4.65725 8.61113
head 5.63469 2.98877 3.06408
rclavicle -2.98177e-014 3.81667e-014
rhumerus -59.8152 9.58037 -87.2799
rradius 66.4143
rwrist -9.71651
rhand 7.03813 -53.4086
rfingers 7.12502
rthumb 32.312 -80.5515
lclavicle -2.98177e-014 3.81667e-014
lhumerus -10.6982 -30.9235 78.5211
lradius 36.3975
lwrist -25.3439
lhand 11.0849 -47.702
lfingers 7.12502
lthumb 36.1546 -21.4236
rfemur -2.74939 0.547221 30.599
rtibia 20.4018
rfoot 23.2338 -9.20177
rtoes -15.9804
lfemur -11.1453 -15.3014 -17.8734
ltibia 41.5815
lfoot 20.8192 14.7262
ltoes 17.6245
336
root 7.88635 16.7196 20.68 319.745 74.8537 -395.989
lowerback 7.2234 1.39157 -2.6411
upperback -3.35865 1.52769 -1.08817
thorax -7.63139 0.85575 0.127665
lowerneck -8.44864 3.1799 -1.90609
upperneck 13.8267 3.40872 9.58644
head 5.33908 2.32542 3.56565
rclavicle 5.96354e-015 2.8625e-014
rhumerus -59.4729 10.6634 -85.8878
rradius 66.6066
rwrist -9.48232
rhand 6.30534 -53.8045
rfingers 7.12502
rthumb 31.6142 -81.087
lclavicle 5.96354e-015 2.8625e-014
lhumerus -9.20426 -28.6062 77.6656
lradius 36.5478
lwrist -24.7391
lhand 10.6227 -48.453
lfingers 7.12502
lthumb 35.7168 -22.0674
rfemur -3.92361 -0.852434 30.7111
rtibia 22.516
rfoot 21.6047 -10.1372
rtoes -12.958
lfemur -11.5354 -14.556 -17.6527
ltibia 42.9632
lfoot 16.3643 11.815
ltoes 3.74026
337
root 7.84565 16.4557 20.7154 308.461 77.2207 -407.371
lowerback 7.78314 1.3759 -2.78758
upperback -3.27615 1.47809 -0.973762
thorax -7.87428 0.841819 0.324472
lowerneck -7.7875 1.9821 -3.11799
upperneck 12.6562 1.90286 10.4
head 4.9306 1.54116 3.88848
rclavicle -3.37934e-015 7.95139e-015
rhumerus -59.3793 10.791 -84.4474
rradius 66.9285
rwrist -9.59026
rhand 6.37037 -54.5296
rfingers 7.12502
rthumb 31.6762 -81.7999
lclavicle -3.37934e-015 7.95139e-015
lhumerus -7.70116 -26.6497 76.9084
lradius 36.5618
lwrist -24.5893
lhand 10.7589 -48.002
lfingers 7.12502
lthumb 35.8458 -21.6477
rfemur -5.44416 -2.08045 31.022
rtibia 25.4166
rfoot 18.6208 -10.7638
rtoes -8.89624
lfemur -11.9821 -13.8446 -17.1762
ltibia 44.3371
lfoot 9.26413 10.487
ltoes -18.238
338
root 7.7997 16.1663 20.7494 292.829 78.8358 -423.168
lowerback 8.20624 1.46406 -2.89929
upperback -3.13782 1.57771 -0.838294
thorax -7.98187 0.898197 0.507047
lowerneck -6.81853 0.713989 -4.04412
upperneck 11.0527 0.311277 11.0374
head 4.38375 0.69191 4.10733
rclavicle 3.37934e-015 6.36111e-015
rhumerus -59.1207 10.5104 -82.6769
rradius 67.1968
rwrist -10.5306
rhand 9.1095 -55.0238
rfingers 7.12502
rthumb 34.2812 -81.7447
lclavicle 3.37934e-015 6.36111e-015
lhumerus -5.93122 -24.7933 76.3781
lradius 36.4626
lwrist -24.7749
lhand 10.896 -47.2277
lfingers 7.12502
lthumb 35.9757 -20.9052
rfemur -6.50042 -3.84949 31.3816
rtibia 28.5431
rfoot 12.325 -9.93598
rtoes -6.37549
lfemur -12.7957 -13.0682 -16.6524
ltibia 45.9306
lfoot 6.82703 10.2731
ltoes -37.983
339
root 7.76225 15.9437 20.7732 274.364 79.4074 -441.829
lowerback 8.78769 1.35957 -2.53246
upperback -3.06353 1.46046 -0.825377
thorax -8.22507 0.822474 0.320127
lowerneck -5.72594 -0.378025 -5.17147
upperneck 9.31937 -1.03768 11.9352
head 3.78931 -0.0444224 4.47433
rclavicle 2.72335e-014 -6.36111e-014
rhumerus -58.6755 10.65 -81.2061
rradius 67.166
rwrist -11.2989
rhand 7.3165 -54.7938
rfingers 7.12502
rthumb 32.5769 -81.8824
lclavicle 2.72335e-014 -6.36111e-014
lhumerus -5.40822 -30.3334 73.5157
lradius 39.7912
lwrist -17.6195
lhand 10.4388 -44.2696
lfingers 7.12502
lthumb 35.5424 -17.842
rfemur -7.89852 -6.20328 31.6139
rtibia 31.9541
rfoot 6.55875 -8.14112
rtoes -11.1019
lfemur -13.5341 -12.1238 -16.2367
ltibia 47.2799
lfoot 2.21122 9.03573
ltoes -52.2566
